<?xml version="1.0" standalone="no"?><!DOCTYPE svg PUBLIC "-//W3C//DTD SVG 1.1//EN" "http://www.w3.org/Graphics/SVG/1.1/DTD/svg11.dtd"><svg t="1713424474378" class="icon" viewBox="0 0 1024 1024" version="1.1" xmlns="http://www.w3.org/2000/svg" p-id="7874" width="256" height="256" xmlns:xlink="http://www.w3.org/1999/xlink"><path d="M958.144106 816.585043c0 78.526471-63.212694 142.190443-141.178393 142.190443H207.033263c-77.964676 0-141.178393-63.663972-141.178393-142.190443V202.254424c0-78.526471 63.212694-142.190443 141.178393-142.190443h609.93245c77.964676 0 141.178393 63.663972 141.178393 142.190443v614.330619z" fill="#077CB0" p-id="7875"></path><path d="M181.91519 511.00023v-3.371794c0.227174-1.928932 0.51677-3.854794 0.672312-5.789867 1.056052-13.143345 1.441838-26.377764 3.238764-39.417754 6.031367-43.771923 20.651342-84.639702 43.48335-122.45189 31.57002-52.284807 74.309426-93.000114 128.177288-121.81744 40.876989-21.86703 84.504626-34.446533 130.812301-37.708833 30.580482-2.15406 60.879556-0.355087 90.88801 5.869684 35.741016 7.414877 69.366857 20.38119 100.737332 39.063691 52.755528 31.419594 93.926206 74.116021 123.006522 128.153752 30.439266 56.562227 42.890856 117.079532 38.189787 181.161013-2.328022 31.714306-9.066493 62.446237-20.565385 92.047415-27.374464 70.462818-73.264631 125.818567-137.900743 164.904771-69.758784 42.184775-145.387251 55.92266-225.801722 42.894949-36.465516-5.907547-70.889537-18.040888-103.173824-35.972283-55.495942-30.824029-98.931197-73.90215-129.865744-129.372509-23.150256-41.513486-36.688597-86.012979-40.254819-133.470851-0.618077-8.235568-1.099031-16.480346-1.643429-24.722054z m341.723895-145.761782c6.235005 0.812505 12.554944 1.216711 18.687617 2.509147 27.662013 5.828752 39.380916 41.418318 21.12411 63.081711-11.081383 13.149485-24.6494 23.309892-38.303374 33.410947-35.006282 25.89681-53.211922 60.390415-53.007261 104.093777 0.023536 5.099135 1.481747 10.698666 3.90903 15.18177 6.478552 11.969613 17.334807 16.969487 30.761607 18.101264 23.997554 2.0241 42.917462-18.409279 41.317011-37.656645-0.590448-7.099698 0.471744-14.688537 2.441609-21.578458 3.900843-13.637602 13.715373-23.36822 24.551162-31.81766 14.818497-11.556197 30.525224-22.018479 44.917003-34.065863 14.877849-12.453636 24.840758-28.511357 28.299532-47.978734 3.453658-19.440771 1.681292-38.648229-3.959171-57.427944-11.509125-38.315654-37.755905-61.424978-75.79322-71.611991-21.543665-5.7694-43.559075-6.031367-65.621557-3.514034-34.377972 3.923356-64.705698 16.881482-89.685625 41.156352-10.374278 10.081613-18.640546 21.795399-22.536273 35.975353-2.718925 9.899464-2.87856 19.87363 3.353375 28.695552 10.667967 15.10093 33.363875 19.389606 49.906643 10.049891 7.895831-4.456498 12.81384-11.594059 18.23327-18.38165 7.331989-9.18315 15.481599-17.355273 26.670429-21.932521 11.144828-4.557806 22.810518-5.567809 34.734083-6.290264z m29.093618 318.913377c0-2.750647 0.002047-4.574179 0-6.399757-0.019443-16.322757-7.909134-27.743878-22.321378-34.615379-13.068643-6.230911-26.78811-5.955642-40.164768-1.38351-12.233626 4.182252-21.792329 12.221346-25.1324 25.132401-1.788739 6.907317-1.420349 14.440897-1.527797 21.700231-0.236384 15.957437 8.182356 26.686802 21.730931 33.704636 10.578939 5.478781 22.080901 6.310729 33.646308 4.396124 12.844539-2.12643 22.86987-8.783037 29.514197-20.201088 4.218068-7.253194 4.397147-15.220656 4.254907-22.333658z" fill="#FFFFFF" p-id="7876"></path></svg>